# xmcd
#
# Track frame offsets:
#	150
#	10541
#	20984
#	32361
#	42622
#	54278
#	65885
#	77703
#	90928
#	103536
#	113776
#	125205
#	139406
#	152086
#	164793
#	177476
#	192416
#	204506
#
# Disc length: 2873 seconds
#
# Revision: 0
# Processed by: cddbd v1.5.1PL2 Copyright (c) Steve Scherf et al.
# Submitted via: audiograbber 1.83.01
#
DISCID=000b3712
DTITLE=Ray Charles - Legend - The Best Of The Early Years [CD2]
DYEAR=2005
DGENRE=Blues
TTITLE0=Hey Now
TTITLE1=I Wonder Who's Kissing Her Now
TTITLE2=Back Home
TTITLE3=Sitting On Top Of The World
TTITLE4=How Long, How Long Blues
TTITLE5=C C Rider
TTITLE6=Can't You See, Darling?
TTITLE7=Alone In This City
TTITLE8=Blues Before Sunrise
TTITLE9=I've Had My Fun
TTITLE10=Let's Have A Ball
TTITLE11=Someday - Blues Is My Middle Name
TTITLE12=You'll Never Miss The WAter Till The Well Runs Dry
TTITLE13=The Snow Is Falling
TTITLE14=Can Anyone Ask For More
TTITLE15=I'm Wondering And Wondering
TTITLE16=I'm Glad For Your Sake
TTITLE17=I'll Do Anything But Work
EXTD=
EXTT0=
EXTT1=
EXTT2=
EXTT3=
EXTT4=
EXTT5=
EXTT6=
EXTT7=
EXTT8=
EXTT9=
EXTT10=
EXTT11=
EXTT12=
EXTT13=
EXTT14=
EXTT15=
EXTT16=
EXTT17=
PLAYORDER=
